#!OML:ASF F:\VICON\USERDATA\INSTALL\rory3\rory3.ASF
:FULLY-SPECIFIED
:DEGREES
47
root -0.5297990494898768 17.977250120905815 31.55276172368574 1.9323529652179043 5.582606934622218 -3.1189988797982764
lfemur -25.36989257801698 -2.255214815066798 -21.632711762779522
ltibia 29.341264040504626
lfoot 7.3563451424871555 -16.278787280756777
ltoes -11.22721743080935
rfemur -2.978509895725562 1.1871203332917202 29.68206152574922
rtibia 73.74983032065194
rfoot 21.825522789458226 -14.278178256525955
rtoes 14.846112844863312
lowerback 13.114233891608787 1.4306643751161174 3.815499646883989
upperback -1.2567218630479564 2.463054226070466 0.8557198392308959
thorax -8.356369330585535 1.0791014751242112 -1.623266552421296
lowerneck -18.192268155628046 -5.988862979119272 -2.091586858195078
upperneck 12.662414498644443 -8.267171964354038 3.4236300911416806
head 7.224040547122131 -3.768989065190607 0.45405859656932607
lclavicle -9.74550900779205e-16 1.2043818972608082e-15
lhumerus -56.57063222359008 -12.168189039637085 99.06399115369334
lradius 113.58290692605031
lwrist 36.278736116586124
lhand -32.05079949370647 0.13162063569757182
lfingers nan
lthumb -5.286349811821901 30.137324302060787
rclavicle -9.137893144614146e-16 1.2506477838300908e-15
rhumerus -44.57438437905971 15.296961842678794 -98.16006405376028
rradius 124.77114242344071
rwrist -15.200689342081757
rhand -19.17301597908125 33.28836706576412
rfingers nan
rthumb 7.6485159056785825 4.795953675847589
48
root -0.5748911771835143 17.79240588601099 32.853235703410036 1.226869353764518 6.147966467964292 -2.01324551188137
lfemur -21.524956730741366 -2.4912757974284867 -23.483979036429016
ltibia 31.17768005810111
lfoot 2.8008431775249525 -15.902767594327557
ltoes -8.050918967525837
rfemur -6.41158610286095 -1.0308580402220104 27.14690036106346
rtibia 83.94607800357079
rfoot 20.799760692903867 -14.38544014627504
rtoes 19.074606141487145
lowerback 13.477774401062382 1.079615336221158 2.2609529281413696
upperback -0.8737544230848819 1.751453454768379 0.4502554211611203
thorax -8.49470321847156 0.7992641896130732 -0.9616991676492272
lowerneck -18.394332516950247 -5.899986082972134 -2.0589792686317647
upperneck 12.409148899550495 -8.194251820176001 3.698177086553544
head 7.2365911832393595 -3.689683953301925 0.5580531311835647
lclavicle -9.807927107271631e-16 1.2016217485722567e-15
lhumerus -54.20222783555045 -13.047984342014123 98.910079775286
lradius 114.71127517627006
lwrist 36.43666707287749
lhand -31.92287429527193 0.23175714675170825
lfingers nan
lthumb -5.133670505878518 30.2509619989043
rclavicle -9.181531555522207e-16 1.2488642662060594e-15
rhumerus -45.16958285644672 15.050967265191288 -99.06482441412032
rradius 123.5271085091605
rwrist -15.392303650309268
rhand -19.19125425305366 33.222751320851934
rfingers nan
rthumb 7.596201532323047 4.696704319157337
49
root -0.5845353760952405 17.60319563202512 34.607232093938265 0.8769446992690093 7.05525913028211 -0.8030846015580722
lfemur -18.091712116088345 -2.97415476570953 -25.445473231064266
ltibia 34.96847238991147
lfoot 0.32164246488913095 -12.515563981794749
ltoes -7.579114673453091
rfemur -11.997900090045157 -3.9239154504896856 23.719330160537993
rtibia 94.07532502438502
rfoot 19.220372297740884 -12.19029150092356
rtoes 22.95714735756598
lowerback 13.940031345371668 0.7662784643393906 0.752979949134777
upperback -0.5251145228590639 1.1584983049403417 0.09544036972750591
thorax -8.659849128456996 0.5254418893889367 -0.4142926985246388
lowerneck -18.836850801533025 -5.75401998463187 -2.0170479897811893
upperneck 12.03453814541949 -8.025927781581256 3.9680746649329297
head 7.182704083679308 -3.582897552334156 0.6705077605607286
lclavicle -9.886666419551073e-16 1.1996746568900827e-15
lhumerus -51.402198257257595 -13.815143214398617 98.67213038964145
lradius 115.62907993078628
lwrist 36.7861931213053
lhand -31.711841095333735 0.23028895760855148
lfingers nan
lthumb -4.887006218992381 30.276833110092102
rclavicle -9.248720420486686e-16 1.2468305197878267e-15
rhumerus -45.98674196127559 14.42724789406645 -99.99632583599033
rradius 122.00033733388437
rwrist -15.655546512388371
rhand -19.19524494447327 33.16216585729235
rfingers nan
rthumb 7.557324683309713 4.6955801526808285
50
root -0.5784803617211937 17.423889295481917 36.39426366006942 0.6611690044334035 7.682472727101329 -0.0014078943224247187
lfemur -14.997822525768566 -3.533229009605648 -26.78276335655393
ltibia 39.064263993484914
lfoot -0.8813665842902725 -10.00565866798854
ltoes -8.327085308917313
rfemur -20.33379296552499 -6.366300159555532 20.91501533612999
rtibia 103.86531227163096
rfoot 17.353624607369287 -8.520901640803526
rtoes 24.04265932620108
lowerback 14.466573279044672 0.48456434035224966 -0.35018425250822993
upperback -0.33631223287573925 0.6690089103083644 -0.12072784938740022
thorax -8.879362958722774 0.2997822595902083 0.011443860694196117
lowerneck -19.45784404651738 -5.553988496539087 -1.9823957818394786
upperneck 11.679146094147523 -7.768608329958624 4.187556516903058
head 7.091576533089338 -3.4470759985806536 0.7792119754487747
lclavicle -9.959567595202e-16 1.1977966383836558e-15
lhumerus -48.36240420336504 -14.447247420190397 98.37191939714711
lradius 116.36198941107548
lwrist 35.80071570163107
lhand -31.5509884652499 0.0071359439093204025
lfingers nan
lthumb -4.660277486529995 30.126645105348693
rclavicle -9.284456760893697e-16 1.2467211831444132e-15
rhumerus -46.96437487966155 13.614216008987338 -100.87396660004592
rradius 120.43902110609979
rwrist -15.970046523753933
rhand -19.204190001565074 33.1464415059697
rfingers nan
rthumb 7.405626849061187 4.494854316516829
51
root -0.5594121339205868 17.293776100998073 38.874535988879316 1.034915815887377 7.743193649581963 0.7390966073543308
lfemur -11.685843084477188 -4.026601625496453 -27.854512471246093
ltibia 41.79768930022921
lfoot -1.9560118873967336 -9.085712554076249
ltoes -8.91100013526331
rfemur -27.453463024709755 -7.585275949177381 19.39083172076375
rtibia 109.88818299103599
rfoot 15.123290903727243 -4.797351695162705
rtoes 21.413608961083177
lowerback 14.97025941598251 0.3192465789199059 -1.10489629673551
upperback -0.27685582253168406 0.3310359595632838 -0.36419905736252844
thorax -9.135479195956421 0.15219707890769824 0.3951913555684805
lowerneck -20.076513120262888 -5.268277680413467 -1.9313044383802438
upperneck 11.473123434270265 -7.375250033571829 4.294088735327607
head 7.058389316184506 -3.24984327915708 0.863753025205744
lclavicle -1.0038023433543725e-15 1.1950425412493113e-15
lhumerus -45.33254110265358 -15.039693232881021 98.0106830668601
lradius 117.01624747158685
lwrist 32.56731202891889
lhand -31.214932091543087 -0.033351600209241966
lfingers nan
lthumb -4.391483863801416 30.002767027448538
rclavicle -9.332620394929905e-16 1.2453797953582308e-15
rhumerus -48.10907955006404 12.8086940342604 -101.62870822727908
rradius 119.09781070078382
rwrist -16.275061660192122
rhand -19.142679057449747 33.3016679309473
rfingers nan
rthumb 7.363781917324202 4.55240220619775
52
root -0.516944928569691 17.248480529858767 40.69088455337506 1.4900704622475662 6.845767839825844 2.159379759423491
lfemur -7.5282840934914645 -4.401313082923825 -29.783248608677773
ltibia 42.18693421271709
lfoot -2.451464587304455 -8.563323636463354
ltoes -11.387537012819587
rfemur -31.478426146226255 -7.5326799195271565 17.931580338895884
rtibia 110.34505038510483
rfoot 12.410259495157117 -2.148956591635123
rtoes 16.01735601312639
lowerback 15.31617114828736 0.09359653630433662 -2.4835899639418675
upperback -0.14281423500139112 -0.14367063975998462 -0.7161191363584347
thorax -9.17183931357478 -0.04447280699312256 0.9379919354371706
lowerneck -20.654200640397587 -4.858387590018375 -1.9048786892582095
upperneck 11.438305998874633 -6.802811110008158 4.309011566304735
head 7.103171103299091 -2.9720233177944118 0.9417184482582811
lclavicle -1.0095698105184832e-15 1.1936105934760666e-15
lhumerus -42.48012010557367 -15.582025035974482 97.6398908023437
lradius 117.60662988928013
lwrist 29.246803345913932
lhand -31.106271509012583 -0.026442070083787073
lfingers nan
lthumb -4.307319787631476 29.967791733869433
rclavicle -9.377253353197456e-16 1.2441990892432571e-15
rhumerus -49.42791504992904 12.107369432394368 -102.21310985056239
rradius 118.20234591407524
rwrist -16.5663176580135
rhand -19.073767558451344 33.479462161553684
rfingers nan
rthumb 7.342937296133762 4.618245791903195
53
root -0.46866172792778205 17.26380814077495 41.71165301670494 1.7716519358288538 5.129293943101434 2.989574458023649
lfemur -3.0278579527041583 -4.56696961303583 -30.97775745789469
ltibia 40.83830296959003
lfoot 0.47188756125197395 -9.579287083098647
ltoes -13.483815343994609
rfemur -34.31195525811384 -6.735127129292673 17.79245690079367
rtibia 106.82344075311691
rfoot 9.764445115816912 -1.0046273256074727
rtoes 9.767169827186942
lowerback 15.396367823736473 -0.09526451311085166 -3.30739138291741
upperback -0.0597617561742223 -0.48832068667674766 -0.7461775104229207
thorax -9.020494493715452 -0.1930673419998808 1.4323081718620663
lowerneck -21.05891628946309 -4.379603257826354 -1.9394040331871523
upperneck 11.630271986659807 -6.091919968450082 4.2387555375135015
head 7.206235375782386 -2.6362108632437833 1.0151763113961527
lclavicle -1.0154287376013296e-15 1.1929791753637497e-15
lhumerus -40.05018145416658 -16.098234880273672 97.30570882324702
lradius 118.13500019701644
lwrist 27.77548103406108
lhand -31.22309742935571 0.06653718496411544
lfingers nan
lthumb -4.395945089767738 30.065238734814837
rclavicle -9.44338812358632e-16 1.2421010395486704e-15
rhumerus -50.854971665569586 11.542566207763723 -102.57316049524388
rradius 117.85604512771462
rwrist -16.919070745562397
rhand -18.92554887599483 33.81703155737829
rfingers nan
rthumb 7.532396340215666 5.148855323914465
54
root -0.41720490679897115 17.34383897096258 41.64119244659836 2.256560519966773 3.360054288630056 2.134742701435178
lfemur 1.0536559498328089 -4.377598114413478 -30.002425001125573
ltibia 38.84013616697416
lfoot 3.4994410492357093 -11.351990308409167
ltoes -14.982284526942282
rfemur -37.99975595289027 -5.08911072920568 20.21388666226801
rtibia 101.38587023043812
rfoot 7.873887956772704 -1.006011759167066
rtoes 4.510838466760124
lowerback 14.942581254575103 -0.43696804491374025 -2.8640349331539823
upperback -0.303848997093086 -0.8687367885694021 -0.12469953333937633
thorax -8.949781351444788 -0.3676612427991041 1.7514823170621339
lowerneck -21.270869245905928 -3.8797266024824824 -2.0532153187836664
upperneck 12.00635305031289 -5.315351174078821 4.086174407614578
head 7.3073442632390435 -2.277879859851493 1.0850603611247778
lclavicle -1.019316716693462e-15 1.1933035654257713e-15
lhumerus -38.23835794779456 -16.57119003111252 97.03696702639262
lradius 118.5620836487427
lwrist 28.277252948008794
lhand -31.390762003882266 0.14644123290266658
lfingers nan
lthumb -4.491119407422047 30.202130813523652
rclavicle -9.495984160739828e-16 1.2406533290740186e-15
rhumerus -52.2427187821029 11.126074923658303 -102.64656197655773
rradius 118.0260197069674
rwrist -17.283706566708574
rhand -18.85336109568672 33.945017809078784
rfingers nan
rthumb 7.655078934698365 5.453064111879465
